<?xml version="1.0" encoding="UTF-8" standalone="no"?>
<svg width="48px" height="30px" viewBox="0 0 48 30" version="1.1" xmlns="http://www.w3.org/2000/svg" xmlns:xlink="http://www.w3.org/1999/xlink" xmlns:sketch="http://www.bohemiancoding.com/sketch/ns">
    <!-- Generator: Sketch 3.3.1 (12005) - http://www.bohemiancoding.com/sketch -->
    <title>cf-logo-header</title>
    <desc>Created with Sketch.</desc>
    <defs></defs>
    <g id="Page-1" stroke="none" stroke-width="1" fill="none" fill-rule="evenodd" sketch:type="MSPage">
        <g id="Main-Frames" sketch:type="MSArtboardGroup" transform="translate(-250.000000, -19.000000)" fill="#FFFFFF">
            <g id="Frame-1" sketch:type="MSLayerGroup" transform="translate(-81.000000, 0.000000)">
                <g id="site-header" transform="translate(81.000000, 0.000000)" sketch:type="MSShapeGroup">
                    <path d="M267.0862,36.4275546 L270.247,39.6445814 L269.9587,39.9373691 C267.7501,42.184499 264.8143,43.4229361 261.6913,43.4229361 C255.2446,43.4229361 250,38.0845629 250,31.5235134 C250,24.962767 255.2446,19.625 261.6913,19.625 C264.8143,19.625 267.7501,20.8625278 269.9587,23.1099608 L270.247,23.4036577 L267.0862,26.6200784 L266.7979,26.3272907 C265.4344,24.9385196 263.6206,24.1741196 261.6913,24.1741196 C257.7097,24.1741196 254.4694,27.4708598 254.4694,31.5235134 C254.4694,35.5764701 257.7097,38.8741196 261.6913,38.8741196 C263.6206,38.8741196 265.4344,38.1085072 266.7979,36.7206454 L267.0862,36.4275546 L267.0862,36.4275546 Z M297.2086,23.130268 C294.9982,20.8698021 292.0552,19.625 288.9226,19.625 C285.4687,19.625 282.2293,21.1250062 280.0051,23.7891918 L279.7417,24.1119856 C278.5948,25.6413918 277.8616,27.3126454 277.2685,29.078767 L274.6975,29.078767 C274.3342,30.1414103 274.0246,31.241334 273.7096,32.3661113 C273.5602,32.8977361 273.4102,33.4326948 273.2521,33.9691691 L275.83,33.9691691 C275.374,35.507668 274.8502,37.0516227 274.1056,38.5198041 L274.0603,38.6004268 C272.5819,41.2624907 270.3409,43.3326144 267.7117,44.5901464 L269.62,48.7346371 C272.6155,47.306767 275.2384,45.0857031 277.1608,42.2051093 C277.1608,42.2051093 277.6813,41.4061567 278.1691,40.4541423 C279.1882,38.4649443 280.0288,35.6558804 280.6336,33.5048309 C281.1277,31.7408309 281.5972,30.0656371 282.2815,28.6174598 L282.2815,28.6183691 L282.4789,28.2179835 L282.5107,28.1567588 C282.6091,27.9700536 282.7093,27.791532 282.8065,27.6290742 C284.137,25.4655979 286.4224,24.1741196 288.9226,24.1741196 C290.8582,24.1741196 292.6762,24.9436722 294.0427,26.3409299 L294.3298,26.6355361 L297.1465,23.7704 L297.1573,23.7643381 L297.4942,23.4224495 L297.2086,23.130268 L297.2086,23.130268 Z" id="cf-logo-header"></path>
                </g>
            </g>
        </g>
    </g>
</svg>