<?xml version="1.0" encoding="UTF-8" standalone="no"?>
<svg width="349px" height="53px" viewBox="0 0 349 53" version="1.1" xmlns="http://www.w3.org/2000/svg" xmlns:xlink="http://www.w3.org/1999/xlink" xmlns:sketch="http://www.bohemiancoding.com/sketch/ns">
    <!-- Generator: Sketch 3.3.1 (12005) - http://www.bohemiancoding.com/sketch -->
    <title>ddash</title>
    <desc>Created with Sketch.</desc>
    <defs></defs>
    <g id="mockups" stroke="none" stroke-width="1" fill="none" fill-rule="evenodd" sketch:type="MSPage">
        <g id="login-desktop" sketch:type="MSArtboardGroup" transform="translate(-545.000000, -184.000000)" fill="#FFFFFF">
            <g id="ddash" sketch:type="MSLayerGroup" transform="translate(545.000000, 184.000000)">
                <path d="M92.224,26.8 C92.224,19.96 90.136,14.2 85.6,9.664 C81.28,5.416 72.64,1.6 54.712,1.6 L21.304,1.6 L21.304,52 L54.712,52 C72.64,52 81.28,48.184 85.6,43.936 C90.136,39.4 92.224,33.64 92.224,26.8 L92.224,26.8 Z M25.768,48.184 L25.768,5.416 L54.64,5.416 C70.192,5.416 78.472,8.44 82.288,12.256 C85.6,15.64 87.688,20.104 87.688,26.8 C87.688,33.496 85.6,37.96 82.288,41.344 C78.472,45.16 70.192,48.184 54.64,48.184 L25.768,48.184 Z M144.064,1.312 L137.944,1.312 L100.36,52 L105.328,52 L115.264,38.536 L166.456,38.536 L176.464,52 L181.648,52 L144.064,1.312 Z M140.896,3.976 L163.648,34.72 L118.072,34.72 L140.896,3.976 Z M227.224,49.336 C213.544,49.336 199.36,46.528 191.368,43.216 L191.368,47.248 C199.504,50.56 212.32,53.008 227.08,53.008 C247.528,53.008 253.576,49.696 256.528,46.744 C258.832,44.44 259.696,41.128 259.696,38.104 C259.696,35.152 259.048,32.272 256.96,30.184 C253.936,27.16 248.968,25.432 226.864,24.352 C207.568,23.416 201.88,22.048 199.576,19.744 C198.352,18.592 197.704,16.936 197.704,14.704 C197.704,12.4 198.352,10.384 199.792,8.944 C202.456,6.28 208.432,4.336 224.2,4.336 C236.08,4.336 247.816,6.496 255.736,9.304 L255.736,5.272 C249.04,2.968 237.808,0.592 224.2,0.592 C207.352,0.592 199.792,3.112 196.336,6.568 C194.032,8.872 193.168,11.896 193.168,14.992 C193.168,17.872 194.032,20.536 195.904,22.48 C199,25.576 205.84,27.304 225.928,28.312 C246.952,29.248 251.344,30.76 253.36,32.776 C254.872,34.36 255.232,36.304 255.232,38.392 C255.232,40.552 254.656,42.712 252.928,44.44 C250.768,46.6 245.584,49.336 227.224,49.336 L227.224,49.336 Z M282.808,24.568 L282.808,1.6 L278.344,1.6 L278.344,52 L282.808,52 L282.808,28.456 L343.648,28.456 L343.648,52 L348.112,52 L348.112,1.6 L343.648,1.6 L343.648,24.568 L282.808,24.568 Z" id="DASH" sketch:type="MSShapeGroup"></path>
                <path d="M71.224,26.8 C71.224,19.96 69.136,14.2 64.6,9.664 C60.28,5.416 51.64,1.6 33.712,1.6 L0.304,1.6 L0.304,52 L33.712,52 C51.64,52 60.28,48.184 64.6,43.936 C69.136,39.4 71.224,33.64 71.224,26.8 L71.224,26.8 Z M4.768,48.184 L4.768,5.416 L33.64,5.416 C49.192,5.416 57.472,8.44 61.288,12.256 C64.6,15.64 66.688,20.104 66.688,26.8 C66.688,33.496 64.6,37.96 61.288,41.344 C57.472,45.16 49.192,48.184 33.64,48.184 L4.768,48.184 Z" id="D" sketch:type="MSShapeGroup"></path>
            </g>
        </g>
    </g>
</svg>