<?xml version="1.0" encoding="UTF-8" standalone="no"?>
<svg width="100px" height="20px" viewBox="0 0 100 20" version="1.1" xmlns="http://www.w3.org/2000/svg" xmlns:xlink="http://www.w3.org/1999/xlink" xmlns:sketch="http://www.bohemiancoding.com/sketch/ns">
    <!-- Generator: Sketch 3.3.1 (12005) - http://www.bohemiancoding.com/sketch -->
    <title>dividersaturn</title>
    <desc>Created with Sketch.</desc>
    <defs></defs>
    <g id="Page-1" stroke="none" stroke-width="1" fill="none" fill-rule="evenodd" sketch:type="MSPage">
        <g id="Main-Frames" sketch:type="MSArtboardGroup" transform="translate(-670.000000, -694.000000)" fill="#A3A3A3">
            <g id="Frame-1" sketch:type="MSLayerGroup" transform="translate(-133.000000, -268.000000)">
                <g id="dividersaturn" transform="translate(803.000000, 962.000000)" sketch:type="MSShapeGroup">
                    <rect id="Rectangle-7" x="0" y="9" width="100" height="1"></rect>
                    <path d="M50,19 L50,19 C54.9705627,19 59,14.9705627 59,10 C59,5.02943725 54.9705627,1 50,1 C45.0294373,1 41,5.02943725 41,10 C41,14.9705627 45.0294373,19 50,19 L50,19 Z M50,20 L50,20 C44.4771525,20 40,15.5228475 40,10 C40,4.4771525 44.4771525,0 50,0 C55.5228475,0 60,4.4771525 60,10 C60,15.5228475 55.5228475,20 50,20 L50,20 Z" id="Shape"></path>
                </g>
            </g>
        </g>
    </g>
</svg>